<svg xmlns="http://www.w3.org/2000/svg" id="Layer_1" data-name="Layer 1" viewBox="0 0 375.63 108"><defs><style>.cls-1{fill:#002f87}</style></defs><path d="M321.07 285.84v12.39h21.13v16.32h-21.13v29.09H301.8v-74.11h46.26v16.31ZM402.75 317.77c0 17.15-13.2 26.91-28.32 26.91s-28.32-9.66-28.32-26.91 13.2-27 28.32-27 28.32 9.76 28.32 27Zm-39 0c0 6.41 3.93 11.34 10.72 11.34s10.72-4.93 10.72-11.34c0-6.2-3.94-11.43-10.72-11.43s-10.76 5.23-10.76 11.43ZM513.83 320.73h-37.75c0 7.29 3.85 11.24 11.24 11.24 3.84 0 6.6-1.29 8.57-4.64h17.25c-2.86 11.93-14.2 17.35-25.72 17.35-16.76 0-29.27-9.46-29.27-26.9 0-16.86 11.53-27 28-27 17.54 0 27.69 10.84 27.69 28.09Zm-16.66-10.35a10.08 10.08 0 0 0-10.15-8c-5.22 0-9.56 2.76-10.64 8Z" class="cls-1" transform="translate(-210.54 -252.59)"/><path d="M197.07 17.05H215v74.01h-17.93zM224.24 17.05h17.94v74.01h-17.94z" class="cls-1"/><path d="M586.18 307.51v-14.6h-13.61v-19.53h-18v45.39c-.26 25 14.09 25.92 30.92 25.91v-16.05c-9.72 0-12.89.44-12.89-9.86v-11.26ZM550.68 307.51v-14.6h-13.61v-19.53h-18v45.39c-.26 25 14.09 25.92 30.93 25.91v-16.05c-9.73 0-12.9.44-12.9-9.86v-11.26ZM229.37 267.83c-23.4 20.29-25 42.61-4.73 66.33l22.56 26.43 14.94-12.76-22.57-26.43c-6.7-7.84-9.87-14.71-9.42-20.41s4.48-11.69 12-18.22Z" class="cls-1" transform="translate(-210.54 -252.59)"/><path d="m232.25 265.34 22.57 26.43c6.71 7.85 9.88 14.71 9.43 20.41s-4.48 11.7-12 18.22L265 345.34c23.4-20.29 25-42.61 4.73-66.33l-22.53-26.42Z" style="fill:#e87200" transform="translate(-210.54 -252.59)"/></svg>