<svg xmlns="http://www.w3.org/2000/svg" xml:space="preserve" style="enable-background:new 0 0 800 400" viewBox="0 0 800 400"><style>.st2,.st3{fill-rule:evenodd;clip-rule:evenodd;fill:#3b3a39}.st3{fill:#fff}</style><path id="Layer_2" d="M0 0h800v400H0z" style="fill-rule:evenodd;clip-rule:evenodd;fill:none"/><g id="Layer_1"><path d="M412.6 74c9.4 0 17.6 2 24.5 6 6.9 4 12.1 9.4 15.7 16.2 3.6 6.8 5.5 14.4 5.7 22.9.2 6.7.3 11.6.3 14.8 0 3.2-.1 8.2-.3 14.8-.3 8.4-2.3 16.1-5.9 22.9-3.6 6.8-8.8 12.2-15.6 16.2-6.8 4-14.9 6-24.4 6-9.4 0-17.6-2-24.4-6-6.8-4-12-9.4-15.6-16.2-3.6-6.8-5.6-14.4-5.9-22.9-.1-3.3-.2-8.3-.2-14.8s.1-11.5.2-14.8c.2-8.4 2.1-16.1 5.7-22.9 3.6-6.8 8.8-12.2 15.7-16.2 6.9-4 15.1-6 24.5-6zm0 15c-8.9 0-16 2.6-21.5 7.8-5.4 5.2-8.3 12.9-8.7 23.1-.1 3.3-.2 8-.2 14s.1 10.6.2 14c.3 10.2 3.2 17.9 8.7 23.1 5.4 5.2 12.6 7.8 21.5 7.8s16-2.6 21.5-7.8c5.4-5.2 8.3-12.9 8.7-23.1.2-6.7.3-11.3.3-14 0-2.7-.1-7.3-.3-14-.3-10.2-3.2-17.9-8.7-23.1-5.5-5.2-12.6-7.8-21.5-7.8zm83.5 130.2c0 1.2-.4 2.3-1.3 3.2-.9.9-1.9 1.3-3.2 1.3h-6.2c-1.2 0-2.3-.4-3.2-1.3-.9-.9-1.3-1.9-1.3-3.2V110.1c0-1.2.4-2.3 1.3-3.2.9-.9 1.9-1.3 3.2-1.3h6.2c1.2 0 2.3.4 3.2 1.3.9.9 1.3 1.9 1.3 3.2v5.2c5.7-7.5 14.3-11.3 25.8-11.3 6.9 0 13.1 1.6 18.7 4.8 5.6 3.2 10.1 7.8 13.5 13.8 3.4 6 5.2 13 5.6 21 .1 1.1.2 2.9.2 5.3 0 2.6-.1 4.4-.2 5.5-.3 8-2.2 14.9-5.6 20.9-3.4 5.9-7.8 10.5-13.4 13.7-5.5 3.2-11.8 4.8-18.8 4.8-6.2 0-11.5-1.1-15.7-3.2-4.3-2.2-7.6-4.9-10.1-8.1v36.7zm0-64.3c.3 7.8 2.7 13.8 7 18.1 4.3 4.3 10 6.5 17.1 6.5 7.2 0 12.9-2.3 17.2-7 4.3-4.7 6.6-11 7.1-19 .1-1.1.2-2.7.2-4.7s-.1-3.5-.2-4.7c-.4-8-2.8-14.3-7.1-19-4.3-4.7-10-7-17.2-7-6.9 0-12.5 2.1-17 6.4-4.4 4.3-6.8 10-7.2 17.1l-.2 6.5.3 6.8zm118.5-51c11.9 0 21.2 3.8 28.1 11.3 6.9 7.5 10.3 17.8 10.3 30.8v4.5c0 1.2-.4 2.3-1.3 3.2-.9.9-1.9 1.3-3.2 1.3h-57.2v1c.2 7.3 2.5 13.1 6.7 17.2 4.3 4.2 9.8 6.2 16.6 6.2 5.5 0 9.8-.7 12.9-2.2 3.1-1.4 5.8-3.5 8.2-6.2.9-.9 1.7-1.5 2.4-1.8.7-.3 1.7-.5 2.9-.5h5c1.3 0 2.4.4 3.3 1.3.9.9 1.3 1.9 1.2 3.2-.4 3-2.1 6.1-4.9 9.2-2.8 3.2-6.9 5.8-12.1 8-5.3 2.2-11.6 3.2-18.9 3.2-7.1 0-13.4-1.6-19-4.9-5.5-3.3-10-7.8-13.2-13.6-3.3-5.8-5.2-12.3-5.9-19.5-.2-3.3-.3-5.9-.3-7.7 0-1.8.1-4.3.3-7.7.7-6.9 2.6-13.1 5.9-18.6 3.3-5.5 7.7-9.9 13.1-13.1 5.5-2.9 11.9-4.6 19.1-4.6zm23.5 37.1v-.5c0-6.8-2.1-12.2-6.4-16.2-4.3-4-10-6.1-17.1-6.1-6.4 0-11.9 2.1-16.4 6.2-4.5 4.1-6.8 9.5-6.9 16.1v.5h46.8zM750 187.6c0 1.2-.4 2.3-1.3 3.2-.9.9-1.9 1.3-3.2 1.3h-6.2c-1.2 0-2.3-.4-3.2-1.3-.9-.9-1.3-1.9-1.3-3.2v-43.9c0-8.3-2.1-14.6-6.2-19-4.1-4.3-9.8-6.5-17.1-6.5-7.2 0-12.9 2.2-17.1 6.5-4.2 4.3-6.2 10.6-6.2 19v43.9c0 1.2-.4 2.3-1.3 3.2-.9.9-1.9 1.3-3.2 1.3h-6.2c-1.2 0-2.3-.4-3.2-1.3-.9-.9-1.3-1.9-1.3-3.2v-77.5c0-1.2.4-2.3 1.3-3.2.9-.9 1.9-1.3 3.2-1.3h6.2c1.2 0 2.3.4 3.2 1.3.9.9 1.3 1.9 1.3 3.2v5.2c2.4-3.2 5.8-5.9 10.1-8.1 4.3-2.2 9.5-3.2 15.7-3.2 7 0 13.2 1.5 18.6 4.5 5.4 3 9.7 7.3 12.7 12.9 3.1 5.6 4.6 12.2 4.6 19.9v46.3z" style="fill-rule:evenodd;clip-rule:evenodd;fill:#0083c1"/><path d="M377.8 278.3h35.6c.9 0 1.6-.3 2.2-.8.6-.5.9-1.2.9-1.9v-3.7c0-.8-.3-1.4-.9-1.9-.6-.5-1.4-.8-2.2-.8h-35.6v-21.6H416c.9 0 1.6-.3 2.2-.8.6-.5.9-1.2.9-1.9V241c0-.8-.3-1.4-.9-1.9-.6-.5-1.4-.8-2.2-.8h-46.1c-.9 0-1.6.3-2.2.8-.6.5-.9 1.2-.9 1.9v66.2c0 .8.3 1.4.9 1.9.6.5 1.4.8 2.2.8H417c.9 0 1.6-.3 2.2-.8.6-.5.9-1.2.9-1.9v-3.7c0-.8-.3-1.4-.9-1.9-.6-.5-1.4-.8-2.2-.8h-39.1v-22.5h-.1zM476 240c0-.8.3-1.4.9-1.9.6-.5 1.4-.8 2.2-.8h4.3c.9 0 1.6.3 2.2.8.6.5.9 1.2.9 1.9v67.3c0 .8-.3 1.4-.9 1.9-.6.5-1.4.8-2.2.8h-4.3c-.9 0-1.6-.3-2.2-.8-.6-.5-.9-1.2-.9-1.9v-3.2c-4 4.6-10 7-18.1 7-4.8 0-9.2-1-13.1-3-3.9-2-7.1-4.8-9.4-8.5-2.4-3.7-3.7-8-3.9-12.9l-.1-3.4.1-3.3c.2-4.9 1.5-9.2 3.9-12.9 2.4-3.7 5.5-6.5 9.4-8.5 3.9-2 8.3-3 13.2-3 4.3 0 8 .7 11 2s5.3 3 7 5V240zm0 39.7c-.2-4.8-1.9-8.5-4.9-11.2-3-2.7-7-4-12-4s-9.1 1.4-12.1 4.3-4.6 6.8-5 11.7l-.1 2.9.1 2.9c.3 4.9 2 8.8 5 11.7 3 2.9 7 4.3 12.1 4.3 4.8 0 8.8-1.3 11.9-3.9 3.1-2.6 4.8-6.1 5-10.5.1-.7.1-2.1.1-4.1 0-2.1 0-3.4-.1-4.1zm27.5-20.2c0-.8.3-1.4.9-1.9.6-.5 1.4-.8 2.2-.8h4.3c.9 0 1.6.3 2.2.8.6.5.9 1.2.9 1.9v27.1c0 5.2 1.3 9.1 4 11.7 2.7 2.6 6.6 3.9 11.7 3.9 5 0 8.8-1.3 11.6-4 2.8-2.7 4.1-6.6 4.1-11.7v-27.1c0-.8.3-1.4.9-1.9.6-.5 1.4-.8 2.2-.8h4.3c.9 0 1.6.3 2.2.8.6.5.9 1.2.9 1.9v47.8c0 .8-.3 1.4-.9 1.9-.6.5-1.4.8-2.2.8h-4.3c-.9 0-1.6-.3-2.2-.8-.6-.5-.9-1.2-.9-1.9V304c-4 4.6-9.9 7-17.5 7-7.5 0-13.4-2.1-17.9-6.2-4.5-4.1-6.7-9.7-6.7-16.8v-28.5h.2zm79.4 23.2c.2 5.8 2.2 10.4 6 13.9s9 5.2 15.8 5.2c6.8 0 11.9-1.3 15.1-3.9 3.3-2.6 5.4-5.9 6.5-10 .2-.7.5-1.2 1.1-1.6.6-.4 1.2-.6 1.9-.6h5.4c.7 0 1.3.2 1.8.7.5.4.8 1 .8 1.6-.2 3.3-1.4 6.8-3.7 10.4-2.3 3.6-5.9 6.6-10.8 9.1s-10.9 3.7-18.1 3.7c-6.5 0-12.2-1.2-17.1-3.6-4.9-2.4-8.7-5.7-11.4-9.9-2.7-4.2-4.1-9-4.4-14.3-.1-2.1-.1-5.1-.1-9.1s0-7.1.1-9.1c.2-5.3 1.7-10.1 4.4-14.3 2.7-4.2 6.5-7.5 11.4-9.9 4.9-2.4 10.6-3.6 17.1-3.6 7.2 0 13.3 1.2 18.1 3.7 4.9 2.5 8.4 5.5 10.8 9.1 2.3 3.6 3.6 7.1 3.7 10.4 0 .6-.3 1.1-.8 1.6-.5.4-1.1.7-1.8.7h-5.4c-.7 0-1.3-.2-1.9-.6-.6-.4-1-1-1.1-1.6-1.1-4.1-3.3-7.5-6.5-10-3.3-2.6-8.3-3.9-15.1-3.9-6.8 0-12 1.7-15.8 5.2-3.8 3.5-5.8 8.1-6 13.9-.1 2.1-.1 4.9-.1 8.6 0 3.3 0 6.2.1 8.2zm104.4-6.4V275c0-3.3-1.3-5.9-3.8-7.7-2.5-1.8-5.8-2.7-9.8-2.7-3.1 0-5.5.5-7.3 1.4-1.7.9-3.4 2.3-5 4.2-.5.5-1 .9-1.5 1.1-.5.2-1.3.3-2.2.3h-3.5c-.9 0-1.6-.3-2.3-.8-.7-.5-1-1.2-.9-1.9.2-2.1 1.4-4.1 3.4-6.1 2.1-2 4.8-3.7 8.2-5 3.4-1.3 7.1-1.9 10.9-1.9 7.2 0 13.1 1.8 17.5 5.3 4.5 3.6 6.7 8.5 6.7 15v31.3c0 .8-.3 1.4-.9 1.9-.6.5-1.4.8-2.2.8h-4.3c-.9 0-1.6-.3-2.2-.8-.6-.5-.9-1.2-.9-1.9v-4.2c-1.2 2.5-3.9 4.4-7.9 5.8-4 1.4-8.1 2.2-12.1 2.2s-7.5-.6-10.6-1.9c-3.1-1.3-5.5-3-7.2-5.2-1.7-2.2-2.5-4.6-2.5-7.4 0-5.1 2.2-9.1 6.5-12 4.3-2.9 10.1-4.9 17.4-5.9l16.5-2.6zm0 8.2-13.7 1.9c-5 .7-9 1.8-11.8 3.3-2.8 1.5-4.2 3.5-4.2 5.8 0 1.7.9 3.2 2.7 4.6 1.8 1.4 4.5 2.1 8.2 2.1 5.6 0 10.1-1.4 13.6-4.2 3.5-2.8 5.2-6.5 5.2-11v-2.5zm43.4 7.6c0 2.9.7 5.2 2 6.8 1.4 1.6 3.9 2.4 7.7 2.4h6.2c.9 0 1.6.3 2.2.8.6.5.9 1.2.9 1.9v3.3c0 .8-.3 1.4-.9 1.9-.6.5-1.4.8-2.2.8h-7.3c-6.6 0-11.5-1.5-14.6-4.6-3.1-3-4.7-7.5-4.7-13.4v-26.6h-8.6c-.9 0-1.6-.3-2.2-.8-.6-.5-.9-1.2-.9-1.9v-3.3c0-.8.3-1.4.9-1.9.6-.5 1.4-.8 2.2-.8h8.6V240c0-.8.3-1.4.9-1.9.6-.5 1.4-.8 2.2-.8h4.3c.9 0 1.6.3 2.2.8.6.5.9 1.2.9 1.9v16.7h14.8c.9 0 1.6.3 2.2.8.6.5.9 1.2.9 1.9v3.3c0 .8-.3 1.4-.9 1.9-.6.5-1.4.8-2.2.8h-14.8v26.7zM42.1 238s-1.5-2.4 8.5-14.6c0 0 7.2-4 12.1-18.5 0 0 4.5-35.1 41.1-68.5 36.5-33.4 76.4-31.9 76.4-31.9s41.8-4.3 82.9 35c0 0 26.6 26.3 34.2 53.4 0 0 1.8 5.4 3.4 12 0 0 1.1 9.5 9.9 17 0 0 8.5 8.5 10.6 16.1 0 0 1.4 5.3-11.6 10.4 0 0-8.9 4.1-4 14.7 0 0 5.4 11.8-7.6 13.3 0 0-18.5 2.2-22.7 8.9 0 0-20.3 17.3-63.7 23 0 0-65.4 9.5-111.5-14.8l-14-9.4s-7-5.9-17.6-6.8c-10.6-.9-12.3-7-12.3-7s-.9-3 1.5-7.4.1-10.6.1-10.6-1.4-3.3-9.5-6.3c-.1-.1-6.5-3-6.2-8z" class="st2"/><path d="M137.1 258.5s0-15.2 11.8-27.5c0 0 12.7-15.3 33.1-14.9 20.4.4 33 15.4 33 15.4s12 13.5 11.2 28c-.8 14.6-7.8 20.1-7.8 20.1s-10.3 13.9-37.2 13.8c0-.1-44.1 1.6-44.1-34.9z" class="st3"/><path d="M175.3 228h11.9s5.6-.4 5.9 6.3c.3 6.7-7 11.6-8.7 11.9 0 0-2 13.1 10.8 13.3 0 0 6.5.8 10.2-4.8 0 0 1.5-1.5 3.2.3 1.7 1.7-.1 4.7-.1 4.7s-4.4 5.9-13.4 5.8c-9-.1-13.9-7.1-13.9-7.1s-5.1 6.4-12.9 6.4c-7.8 0-13.9-6.1-13.9-6.1s-2.1-3.8 1.9-5.3c0 0 1.5-.5 2.9 1.6 0 0 1.9 3.7 8.8 3.7 0 0 10.9 1.1 10.8-12.5 0 0-9-5.4-8.7-12.3.3-6.8 5.2-5.9 5.2-5.9zM75.3 161.3s-10.3-9.9-12.8-44c-2.6-34.2 5.3-37 5.3-37s10.3-.8 28.8 20.4c0 0-17.3-9.7-17.8 10.5 0 0-1 25.8 8.7 34.9l-12.2 15.2zM73.8 76.2s7.9-3.3 16.4 1c0 0 38.1 17 48.7 30.6 0 0-16.2 7.2-21.4 11.8.1-.1-22.2-36.1-43.7-43.4zM287 160.9s10.3-9.9 12.8-44c2.6-34.2-5.3-37-5.3-37s-10.3-.8-28.8 20.4c0 0 17.3-9.7 17.8 10.5 0 0 1 25.8-8.7 34.9l12.2 15.2zM288.4 75.7s-7.9-3.3-16.4 1c0 0-38.1 17-48.7 30.6 0 0 16.2 7.2 21.4 11.8 0 0 22.3-36.1 43.7-43.4z" class="st2"/><path d="M105.7 173.6s-1-3.4 2.8-3.1l9.8 7s1.4 3.6-2.7 3.6l-9.9-7.5zM113 164.8s.3-3.5 3.8-1.9l6.6 10s0 3.9-3.8 2.4l-6.6-10.5zM256.4 174.2s1-3.4-2.8-3.1l-9.8 7s-1.4 3.6 2.7 3.6l9.9-7.5zM249.1 165.4s-.3-3.5-3.8-1.9l-6.6 10s0 3.9 3.8 2.4l6.6-10.5z" class="st3"/><ellipse cx="137.6" cy="202.3" class="st3" rx="19.5" ry="19.2"/><path d="M226.3 220.3c10.7 0 19.5-8.6 19.5-19.2s-8.8-19.2-19.5-19.2-19.5 8.6-19.5 19.2c0 10.5 8.8 19.2 19.5 19.2z" class="st3"/><path d="M226.3 217c8.9 0 16.2-7.2 16.2-15.9 0-8.8-7.3-15.9-16.2-15.9-8.9 0-16.1 7.2-16.1 15.9-.1 8.7 7.2 15.9 16.1 15.9z" class="st2"/><path d="M220.1 200.3c2.5 0 4.6-2 4.6-4.6 0-2.5-2.1-4.6-4.6-4.6-2.5 0-4.6 2-4.6 4.6 0 2.5 2.1 4.6 4.6 4.6z" class="st3"/><path d="M137.6 218.2c8.9 0 16.1-7.2 16.1-15.9 0-8.8-7.3-15.9-16.1-15.9-8.9 0-16.2 7.2-16.2 15.9 0 8.8 7.3 15.9 16.2 15.9z" class="st2"/><path d="M131.4 201.5c2.5 0 4.6-2 4.6-4.6 0-2.5-2.1-4.6-4.6-4.6-2.5 0-4.6 2-4.6 4.6 0 2.6 2.1 4.6 4.6 4.6zM212.9 233.4s22.3-2.3 39 8.8c0 0 1.6 1.3.9 2.9 0 0-.9 1.8-3 .4 0 0-16.1-10.1-37.8-8.2 0 0-1.8.2-1.8-1.6.1 0-.1-1.9 2.7-2.3zM212 242.1s17-1.9 33 8.4c0 0 2 1.3 1.6 3.4 0 0-1 1.8-3.4.6 0 0-11.5-8.7-30.2-9.1 0 0-2.4.1-2.9-1.7 0 0 .1-1.4 1.9-1.6zM209.7 250.9s16.5-.2 27.9 9.2c0 0 1.9 2.4-.4 2.7 0 0-1 .3-3.6-1 0 0-5.8-4.1-23.6-7.7 0 0-1.9 0-1.9-1.7-.1.1-.1-1.3 1.6-1.5zM150 232.4s-22.4-1.1-38.5 10.9c0 0-1.5 1.4-.7 2.9 0 0 1 1.7 3 .2 0 0 15.5-11 37.3-10.3 0 0 1.8.1 1.7-1.7 0 .1 0-1.9-2.8-2zM151.4 241s-17.1-.9-32.5 10.2c0 0-2 1.4-1.4 3.5 0 0 1.1 1.7 3.4.4 0 0 11-9.4 29.6-10.8 0 0 2.4 0 2.8-1.8 0 0-.1-1.5-1.9-1.5zM154.2 249.6s-16.5.7-27.4 10.7c0 0-1.7 2.5.6 2.7 0 0 1 .2 3.5-1.2 0 0 5.6-4.4 23.2-9 0 0 1.9-.1 1.8-1.8 0 .1 0-1.3-1.7-1.4z" class="st3"/></g></svg>